:SAMPLES-PER-SECOND 30
:FULLY-SPECIFIED
:DEGREES
1689
root  10.5928 39.186 16.9819 -7.342 87.7612 -9.53307
RightUpLeg  -26.5831 -34.2634 0.547362
RightLeg  41.3682 4.12495 3.63977
RightFoot  0.104036 -1.01716 9.89752
RightToes  0.000481921 0.542163 -0.142578
Spine  25.7466 1.65122 0.00564859
Spine1  -2.78456 1.08762 3.79263
HEad  -22.0099 7.76019 1.38659
LeftShoulder1  8.05545 -13.4476 -41.1998
LeftArm  6.17701 -0.732074 -38.0069
LeftForeArm  -174.422 -60.3184 -164.001
LeftHand  -0.25398 0.0180481 5.50724
RightShoulder  5.16872 10.0331 32.2399
RightArm  6.72787 -2.74641 42.8558
RightForeArm  165.187 62.4194 160.627
RightHand  -1.3342 3.48901 -17.6268
LeftUpLeg  -21.516 20.9689 -1.00411
LeftLeg  27.3789 8.06528 4.85499
LeftFoot  -7.31908 0.0579874 -0.395413
LeftToes  1.06245e-005 4.65868e-005 -8.65517e-006
1690
root  10.559 39.0338 17.2502 6.09894 88.0321 4.03748
RightUpLeg  -28.4118 -31.6367 -2.92343
RightLeg  46.5574 8.5043 9.1842
RightFoot  3.73137 -2.41561 18.4631
RightToes  0.000481921 0.542163 -0.142578
Spine  26.1489 1.36837 -0.363729
Spine1  -3.00856 0.900925 3.17232
HEad  -22.1604 7.29697 -0.224826
LeftShoulder1  8.00929 -13.3249 -41.2674
LeftArm  5.74399 -1.04637 -37.8028
LeftForeArm  -174.407 -60.3403 -163.989
LeftHand  -0.25398 0.0180481 5.50724
RightShoulder  5.15284 9.94577 32.3701
RightArm  7.08935 -2.65293 43.386
RightForeArm  165.439 62.2379 160.793
RightHand  -1.38527 3.74261 -17.7991
LeftUpLeg  -21.8857 21.9391 -1.25714
LeftLeg  28.1095 6.97847 4.37819
LeftFoot  -7.72523 0.0530496 -0.212862
LeftToes  1.06245e-005 4.65868e-005 -8.65517e-006
1691
root  10.5365 38.8956 17.6035 19.4982 88.532 17.729
RightUpLeg  -29.0674 -28.4169 -6.36072
RightLeg  49.5751 10.6551 12.7518
RightFoot  4.24599 -2.98487 21.8098
RightToes  0.000481921 0.542163 -0.142578
Spine  26.7183 1.19877 -0.9349
Spine1  -3.35212 0.665965 3.16478
HEad  -22.4273 7.31874 -1.4238
LeftShoulder1  8.00046 -13.2336 -41.4607
LeftArm  5.34959 -1.17861 -37.903
LeftForeArm  -174.363 -60.3398 -163.993
LeftHand  -0.25398 0.0180481 5.50724
RightShoulder  5.15699 9.90729 32.511
RightArm  7.47579 -2.48901 43.2112
RightForeArm  165.886 62.1962 160.868
RightHand  -1.39734 3.89884 -17.6616
LeftUpLeg  -22.1675 21.4801 -0.898967
LeftLeg  29.1502 6.82927 4.46479
LeftFoot  -7.9179 0.0615734 -0.462745
LeftToes  1.06245e-005 4.65868e-005 -8.65517e-006
1692
root  10.5298 38.9188 17.9981 0.690628 89.1595 -0.814774
RightUpLeg  -28.4894 -25.2877 -8.68968
RightLeg  48.9711 9.03644 10.6688
RightFoot  2.79305 -2.36495 19.0306
RightToes  0.000481921 0.542163 -0.142578
Spine  27.3146 1.00059 -0.474644
Spine1  -3.57236 0.502604 3.41367
HEad  -22.8122 7.59672 -1.81107
LeftShoulder1  8.01077 -13.2633 -41.4393
LeftArm  5.16815 -1.16657 -38.1893
LeftForeArm  -174.455 -60.3487 -163.979
LeftHand  -0.25398 0.0180481 5.50724
RightShoulder  5.21075 9.98362 32.692
RightArm  7.52424 -2.62602 42.7677
RightForeArm  166.352 62.3326 160.809
RightHand  -1.36307 3.88334 -17.2701
LeftUpLeg  -21.9359 20.8063 0.367727
LeftLeg  29.2002 6.7271 4.41113
LeftFoot  -7.47093 0.087757 -1.26121
LeftToes  1.06245e-005 4.65868e-005 -8.65517e-006
1693
root  10.542 39.0324 18.4261 -68.3211 89.4327 -69.806
RightUpLeg  -27.1832 -22.3648 -10.3164
RightLeg  45.5934 4.1168 4.22219
RightFoot  1.04103 -1.47893 13.6312
RightToes  0.000481921 0.542163 -0.142578
Spine  27.6049 0.764038 0.54659
Spine1  -3.67621 0.41782 3.58133
HEad  -23.0394 7.63624 -1.65922
LeftShoulder1  8.01486 -13.3311 -41.2818
LeftArm  5.33022 -1.12536 -38.3675
LeftForeArm  -174.607 -60.3441 -163.969
LeftHand  -0.25398 0.0180481 5.50724
RightShoulder  5.25052 10.05 32.7962
RightArm  7.35998 -3.11668 42.4475
RightForeArm  166.546 62.4649 160.726
RightHand  -1.34326 3.88019 -17.033
LeftUpLeg  -21.4584 20.5334 1.72145
LeftLeg  28.1847 6.36453 4.03721
LeftFoot  -6.74744 0.117317 -1.91914
LeftToes  1.06245e-005 4.65868e-005 -8.65517e-006
1694
root  10.5699 39.1054 18.9253 -121.205 89.1693 -122.909
RightUpLeg  -25.5647 -19.4223 -11.9617
RightLeg  41.2192 -1.77816 -1.94724
RightFoot  -1.33246 -0.755175 8.44263
RightToes  0.000481921 0.542163 -0.142578
Spine  27.547 0.664592 0.995204
Spine1  -3.77238 0.373054 3.72582
HEad  -23.1072 7.33989 -1.44382
LeftShoulder1  8.02376 -13.3431 -41.2996
LeftArm  5.65323 -1.12019 -38.1819
LeftForeArm  -174.689 -60.3009 -163.989
LeftHand  -0.25398 0.0180481 5.50724
RightShoulder  5.23513 10.0281 32.745
RightArm  7.2708 -3.62148 42.292
RightForeArm  166.438 62.4413 160.734
RightHand  -1.35034 3.88769 -17.1068
LeftUpLeg  -21.2032 20.5159 2.57496
LeftLeg  27.0482 5.8966 3.60889
LeftFoot  -6.08213 0.148244 -2.43219
LeftToes  1.06245e-005 4.65868e-005 -8.65517e-006
1695
root  10.6125 39.116 19.5093 -157.321 88.9773 -159.286
RightUpLeg  -23.4423 -16.8754 -13.6518
RightLeg  35.873 -6.17914 -5.0495
RightFoot  -4.57741 -0.300773 4.63117
RightToes  0.000481921 0.542163 -0.142578
Spine  27.3053 0.699869 0.736689
Spine1  -3.81802 0.310934 3.92707
HEad  -23.161 6.95982 -1.39294
LeftShoulder1  8.04146 -13.3321 -41.4271
LeftArm  5.79274 -1.05823 -37.7575
LeftForeArm  -174.727 -60.2798 -163.999
LeftHand  -0.25398 0.0180481 5.50724
RightShoulder  5.21219 9.99997 32.6559
RightArm  7.2719 -3.95019 42.2247
RightForeArm  166.341 62.2982 160.835
RightHand  -1.33688 3.75205 -17.1793
LeftUpLeg  -21.1474 20.5588 3.07066
LeftLeg  26.2618 5.35089 3.21174
LeftFoot  -5.39923 0.201553 -3.25338
LeftToes  1.06245e-005 4.65868e-005 -8.65517e-006
1696
root  10.676 39.0804 20.1758 171.87 88.3567 169.702
RightUpLeg  -20.6286 -15.6816 -15.0783
RightLeg  29.0349 -7.5085 -4.77088
RightFoot  -6.57202 -0.200112 3.83484
RightToes  0.000481921 0.542163 -0.142578
Spine  26.9339 0.67804 0.263809
Spine1  -3.78038 0.135385 4.1469
HEad  -23.055 6.61074 -1.52363
LeftShoulder1  8.03243 -13.3423 -41.3498
LeftArm  5.6439 -0.869795 -37.4419
LeftForeArm  -174.886 -60.3452 -163.944
LeftHand  -0.25398 0.0180481 5.50724
RightShoulder  5.22847 10.0167 32.7284
RightArm  7.24198 -4.23697 42.1945
RightForeArm  166.482 62.1268 160.979
RightHand  -1.30526 3.59823 -17.0586
LeftUpLeg  -21.1366 20.538 3.44393
LeftLeg  25.6943 4.65283 2.77883
LeftFoot  -4.66432 0.283646 -4.3816
LeftToes  1.06245e-005 4.65868e-005 -8.65517e-006
1697
root  10.7571 38.9953 20.9228 161.501 87.3548 159.045
RightUpLeg  -18.1428 -16.3008 -15.8531
RightLeg  22.6651 -5.41545 -2.70762
RightFoot  -5.38767 -0.392718 6.62855
RightToes  0.000481921 0.542163 -0.142578
Spine  26.4555 0.550103 -0.0121896
Spine1  -3.84038 -0.0894084 4.27309
HEad  -22.6694 6.1856 -1.83069
LeftShoulder1  7.98686 -13.3234 -41.1464
LeftArm  5.34534 -0.727509 -37.29
LeftForeArm  -175.256 -60.4065 -163.873
LeftHand  -0.25398 0.0180481 5.50724
RightShoulder  5.25468 9.9958 32.9823
RightArm  7.22898 -4.52802 42.1198
RightForeArm  166.664 61.9477 161.132
RightHand  -1.31036 3.65984 -17.0119
LeftUpLeg  -21.3403 20.3108 3.84419
LeftLeg  25.2814 4.01666 2.40794
LeftFoot  -4.00328 0.374532 -5.46688
LeftToes  1.06245e-005 4.65868e-005 -8.65517e-006
1698
root  10.8236 38.8891 21.7209 159.143 86.9255 156.228
RightUpLeg  -17.7032 -17.8731 -15.3892
RightLeg  20.0391 -2.04752 -1.01757
RightFoot  -2.58913 -0.782848 10.0301
RightToes  0.000481921 0.542163 -0.142578
Spine  26.103 0.488606 0.357109
Spine1  -4.11529 -0.0312281 3.97089
HEad  -22.446 5.73174 -2.24958
LeftShoulder1  7.95901 -13.247 -41.1936
LeftArm  4.87658 -0.795672 -37.0943
LeftForeArm  -175.703 -60.2714 -163.92
LeftHand  -0.25398 0.0180481 5.50724
RightShoulder  5.25525 9.91771 33.2121
RightArm  7.3717 -4.52251 41.993
RightForeArm  166.491 61.8381 161.198
RightHand  -1.34595 3.76644 -17.267
LeftUpLeg  -21.7924 19.8524 4.7041
LeftLeg  25.0745 4.01216 2.38606
LeftFoot  -3.3437 0.467747 -6.39888
LeftToes  1.06245e-005 4.65868e-005 -8.65517e-006
1699
root  10.8498 38.8137 22.529 152.353 87.784 149.084
RightUpLeg  -19.3501 -18.6787 -13.5878
RightLeg  21.4106 -0.0398327 -0.233371
RightFoot  -1.13252 -0.948647 10.523
RightToes  0.000481921 0.542163 -0.142578
Spine  26.1831 0.609299 1.54066
Spine1  -4.35598 0.483801 3.05549
HEad  -22.8624 5.57542 -2.56278
LeftShoulder1  7.99044 -13.2058 -41.4792
LeftArm  4.01196 -0.849683 -36.9073
LeftForeArm  -176.028 -59.908 -164.119
LeftHand  -0.25398 0.0180481 5.50724
RightShoulder  5.26214 9.93127 33.2241
RightArm  7.67958 -3.92018 41.9655
RightForeArm  165.914 62.006 161.015
RightHand  -1.35942 3.66904 -17.6118
LeftUpLeg  -21.9317 19.333 6.45211
LeftLeg  24.9688 4.98223 2.86598
LeftFoot  -2.5849 0.578457 -7.34411
LeftToes  1.06245e-005 4.65868e-005 -8.65517e-006
